<?xml version="1.0" standalone="no"?>
<!DOCTYPE svg PUBLIC "-//W3C//DTD SVG 20010904//EN"
 "http://www.w3.org/TR/2001/REC-SVG-20010904/DTD/svg10.dtd">
<svg version="1.0" xmlns="http://www.w3.org/2000/svg"
 width="920.000000pt" height="542.000000pt" viewBox="0 0 920.000000 542.000000"
 preserveAspectRatio="xMidYMid meet">

<g transform="translate(0.000000,542.000000) scale(0.100000,-0.100000)"
fill="#000000" stroke="none">
<path d="M3940 5403 c-401 -6 -1507 -49 -2270 -88 -244 -13 -185 -13 740 -7
1387 9 2168 8 2545 -1 176 -4 321 -10 323 -12 2 -2 -18 -13 -44 -25 -27 -11
-71 -38 -99 -59 l-51 -38 -214 -7 c-118 -3 -404 -8 -635 -11 -231 -4 -449 -8
-485 -10 -36 -2 -306 -7 -600 -11 -294 -4 -562 -8 -595 -9 -33 -2 -233 -4
-445 -5 -212 -1 -371 -6 -355 -10 17 -4 714 -8 1550 -9 835 -1 1537 -4 1560
-8 52 -8 75 -20 75 -40 0 -9 -35 -71 -79 -137 -43 -67 -108 -173 -143 -236
-96 -170 -326 -655 -316 -665 2 -2 50 78 107 178 309 539 411 688 548 799 286
233 499 247 809 55 158 -98 612 -424 613 -441 1 -4 -9 -6 -21 -2 -49 13 -260
45 -378 56 -148 15 -353 8 -465 -15 -156 -32 -267 -104 -317 -207 -32 -66 -52
-168 -44 -229 l6 -46 -127 -90 -128 -91 -190 -11 c-104 -6 -266 -21 -358 -32
-93 -11 -171 -19 -173 -17 -5 6 188 420 276 593 43 83 125 230 184 327 58 98
106 182 106 187 0 5 -26 13 -57 17 -60 7 -1678 0 -2773 -13 -574 -7 -603 -8
-360 -14 1022 -25 1835 -124 2205 -268 244 -95 368 -269 405 -571 11 -94 13
-192 4 -237 l-6 -29 -176 -27 c-172 -26 -194 -27 -742 -32 -311 -3 -716 -7
-900 -10 -184 -3 -526 -7 -760 -10 -234 -4 -542 -10 -685 -15 -143 -5 -348
-13 -455 -16 -107 -4 -197 -9 -200 -12 -6 -6 1445 4 2534 18 439 6 801 8 803
6 3 -2 -28 -11 -69 -20 -56 -11 -176 -16 -508 -21 -239 -4 -441 -8 -450 -10
-8 -1 -215 -5 -460 -9 -245 -3 -600 -8 -790 -11 -190 -3 -581 -8 -870 -11
-374 -5 -527 -10 -533 -18 -16 -22 0 -124 29 -176 52 -96 143 -152 315 -195
209 -53 336 -143 412 -295 49 -99 70 -189 107 -465 16 -126 37 -255 46 -285
64 -226 235 -212 614 48 155 106 416 304 725 551 338 270 401 315 630 446 526
303 929 432 1565 501 239 26 700 24 935 -4 99 -12 194 -26 210 -31 29 -9 29
-9 -13 -10 -110 -2 -319 -64 -467 -137 -179 -89 -287 -182 -885 -765 -730
-712 -929 -888 -1235 -1091 -394 -262 -837 -411 -1377 -462 -84 -8 -189 -18
-233 -22 l-80 -8 120 -8 c330 -20 788 34 1070 128 274 91 491 208 773 418 329
245 530 428 1382 1260 370 362 591 519 807 573 99 25 375 25 457 -1 206 -62
397 -239 517 -478 41 -81 89 -193 89 -206 0 -2 -27 20 -61 49 -44 38 -70 71
-96 123 -53 106 -137 231 -193 287 -173 173 -457 153 -655 -45 -291 -292 -443
-923 -535 -2221 -23 -330 -33 -421 -55 -503 -60 -232 -188 -342 -474 -406
-116 -26 -852 -147 -1325 -217 -235 -35 -420 -66 -410 -68 50 -10 973 53 1394
95 315 31 632 99 739 158 22 12 33 9 115 -29 50 -24 118 -51 151 -61 33 -10
64 -21 68 -24 10 -8 -74 -14 -540 -37 -199 -9 -361 -18 -360 -19 1 -1 31 -5
67 -8 296 -26 416 -31 755 -30 577 0 740 26 997 155 228 114 424 288 589 519
l60 85 303 146 c697 338 1103 525 1221 562 44 14 156 42 249 64 l169 38 -7 95
c-44 661 -47 1290 -8 1535 25 157 65 314 92 363 12 20 18 28 15 16 -84 -320
-115 -590 -115 -999 0 -128 5 -290 10 -361 24 -299 78 -587 134 -710 14 -31
26 -58 26 -59 0 -7 -88 -35 -140 -44 -109 -21 -288 -40 -435 -48 -136 -6 -145
-8 -95 -16 89 -14 554 -14 640 1 114 19 178 55 218 122 75 127 136 419 161
785 11 158 6 683 -8 779 -7 49 -6 77 2 95 7 16 11 99 11 216 0 212 -14 301
-78 486 -43 129 -85 196 -176 288 -120 121 -266 191 -471 227 -52 9 -94 17
-95 17 -1 1 25 49 57 107 65 116 73 159 39 203 -47 60 -89 64 -1169 122 -293
16 -294 16 -335 44 -124 84 -491 268 -716 359 -145 59 -337 116 -459 138 -150
26 -429 34 -1076 32 -346 -2 -695 -4 -775 -5z m4465 -723 c10 -32 -35 -99
-128 -187 -80 -75 -86 -79 -123 -75 l-38 5 30 21 c16 11 69 54 118 95 89 75
130 125 121 149 -2 6 0 12 5 12 5 0 12 -9 15 -20z m-785 -16 c191 -17 291 -31
304 -44 18 -18 -71 -88 -216 -169 l-57 -32 -203 136 -203 137 105 -7 c58 -3
179 -13 270 -21z m-1343 -119 c257 -36 332 -73 382 -185 28 -65 46 -173 32
-199 -25 -45 -94 -64 -301 -80 -374 -30 -697 -23 -846 19 l-68 18 -83 -74 -84
-74 -89 0 c-50 0 -90 3 -89 8 0 4 67 58 149 121 l148 114 4 61 c6 96 46 169
119 216 97 63 212 81 459 74 91 -2 211 -11 267 -19z m1275 -167 c-6 -6 -77
-17 -157 -24 -202 -18 -442 -61 -527 -93 -21 -8 -28 -7 -32 5 -7 18 17 28 149
60 159 38 321 59 490 62 67 2 86 -1 77 -10z m-267 -200 c-243 -235 -389 -443
-534 -764 -61 -135 -145 -354 -138 -360 2 -3 37 52 77 122 133 232 305 475
471 669 341 397 540 486 1022 457 284 -18 423 -45 549 -108 139 -70 240 -179
325 -352 48 -99 53 -128 10 -63 -55 83 -145 123 -227 101 -67 -18 -134 -88
-185 -195 -100 -204 -152 -560 -175 -1195 -15 -407 -27 -479 -96 -598 -43 -74
-152 -174 -256 -235 -94 -55 -1259 -649 -1264 -644 -2 1 12 43 31 92 19 50 42
121 52 159 22 85 20 83 318 237 361 185 498 273 607 386 58 61 100 133 113
192 7 33 7 34 -21 28 -184 -40 -610 -104 -621 -94 -2 3 10 25 27 51 52 76 110
212 136 314 47 189 57 341 50 722 -9 468 3 553 87 594 53 25 228 41 342 30
l90 -9 3 -31 3 -31 -183 1 c-203 1 -235 -7 -256 -61 -5 -15 -14 -37 -18 -48
-4 -11 -11 -247 -15 -525 -7 -565 -10 -595 -84 -764 -45 -102 -45 -100 -15
-104 47 -7 400 52 443 74 75 40 122 243 186 814 38 335 54 451 87 622 27 143
26 181 -3 193 -34 14 -229 17 -425 7 -334 -17 -345 -30 -350 -452 -2 -129 1
-419 5 -645 11 -520 7 -544 -128 -751 -62 -95 -209 -254 -258 -277 -47 -23
-57 -9 -57 87 -1 231 -70 507 -186 738 -67 133 -107 197 -190 299 -35 44 -64
89 -64 102 0 51 -40 211 -73 292 -52 126 -120 228 -217 326 -124 125 -270 216
-442 273 -40 14 -66 27 -58 30 71 25 205 46 288 46 249 1 561 37 674 80 76 28
99 56 107 126 6 55 7 57 44 70 64 22 264 64 396 84 69 10 127 18 129 19 2 1
-58 -58 -133 -131z m-1768 -203 c34 -8 89 -18 123 -22 75 -7 85 -19 24 -28
-39 -6 -144 7 -262 31 l-23 5 23 19 c13 11 30 17 38 15 8 -2 43 -11 77 -20z
m3442 -461 c81 -103 131 -457 131 -926 0 -524 -61 -910 -151 -959 -17 -9 -25
-7 -45 12 -30 28 -30 30 2 94 108 223 133 1125 43 1570 -11 55 -29 120 -40
144 -23 53 -23 55 -3 75 22 23 40 20 63 -10z m-2932 -56 c71 -26 147 -96 204
-185 22 -36 38 -67 36 -70 -3 -2 -27 10 -54 26 -107 66 -287 133 -433 162 -58
11 -61 13 -44 27 83 63 190 78 291 40z m-244 -332 c409 -104 747 -437 891
-879 62 -188 71 -249 71 -487 0 -171 -4 -232 -18 -300 -67 -310 -209 -576
-413 -771 -231 -221 -492 -329 -794 -329 -134 0 -235 17 -365 60 -124 42 -119
37 -94 99 12 28 27 50 33 47 156 -69 278 -97 431 -97 186 0 332 41 499 140
457 269 693 875 571 1466 -94 455 -409 823 -804 940 -87 26 -270 49 -309 38
-28 -7 -28 -3 4 59 l26 51 89 -7 c49 -4 131 -17 182 -30z m-256 -158 c-3 -7
-21 -49 -40 -93 -69 -161 -90 -322 -75 -573 8 -153 4 -197 -14 -152 -17 40
-22 385 -8 481 21 145 95 349 126 349 9 0 14 -5 11 -12z m133 2 c114 -18 233
-64 337 -128 l42 -26 -68 -72 c-121 -127 -248 -341 -301 -509 l-22 -70 -97 1
-96 2 -9 114 c-11 137 4 337 35 453 20 79 93 245 107 245 4 0 36 -5 72 -10z
m738 -570 c2 -12 -8 -15 -50 -14 -158 4 -347 -84 -515 -241 -58 -53 -73 -62
-82 -51 -22 27 228 222 355 277 107 46 285 64 292 29z m17 -66 c49 -13 135
-333 135 -500 l0 -62 -77 34 c-125 54 -207 69 -378 69 -82 0 -164 -3 -182 -7
-31 -7 -32 -6 -48 45 -10 29 -31 73 -47 99 l-30 47 38 33 c110 97 224 171 314
204 99 35 223 52 275 38z m-1134 -323 c-16 -25 -37 -69 -47 -98 -10 -28 -21
-50 -24 -48 -6 4 12 206 25 273 l6 34 35 -58 34 -57 -29 -46z m-74 -213 c-3
-7 -5 -2 -5 12 0 14 2 19 5 13 2 -7 2 -19 0 -25z m816 -137 c178 -104 303
-229 383 -385 30 -59 36 -78 27 -87 -10 -10 -17 -2 -33 36 -71 166 -254 344
-452 441 -38 19 -58 34 -58 46 0 15 3 16 28 6 15 -6 62 -32 105 -57z m-793
-46 c7 -25 28 -70 46 -100 l33 -55 -55 -47 c-92 -80 -87 -83 -80 63 8 154 13
184 30 184 8 0 19 -20 26 -45z m815 -53 c78 -51 205 -173 252 -243 34 -49 87
-150 97 -185 11 -36 -101 -194 -220 -311 -57 -57 -108 -103 -114 -103 -5 0
-10 13 -10 30 0 51 -37 224 -69 318 -30 91 -122 283 -167 352 l-25 38 31 48
c17 27 38 73 46 102 l16 53 46 -27 c26 -15 79 -47 117 -72z m-695 -146 c0 -7
-39 -46 -87 -86 -71 -59 -89 -70 -92 -55 -2 11 9 28 30 44 19 14 54 45 79 68
46 44 70 54 70 29z m357 -93 c13 -90 9 -420 -6 -488 -33 -157 -103 -317 -128
-292 -3 3 8 34 25 69 42 89 70 184 82 280 12 96 12 290 1 398 -4 41 -6 78 -4
83 11 20 22 1 30 -50z m-159 26 c31 1 66 2 77 4 19 2 21 -6 29 -118 16 -228
-23 -469 -102 -619 l-37 -71 -63 2 c-77 3 -206 35 -285 70 l-59 26 7 61 c6 54
13 69 60 126 106 131 202 303 257 462 19 56 26 67 41 62 10 -3 44 -5 75 -5z"/>
<path d="M208 3783 c17 -2 47 -2 65 0 17 2 3 4 -33 4 -36 0 -50 -2 -32 -4z"/>
<path d="M3580 3313 c-264 -18 -571 -73 -699 -124 -164 -65 -189 -84 -646
-490 -231 -206 -305 -278 -170 -168 231 190 592 440 746 517 93 47 190 74 349
96 153 22 381 38 485 34 l90 -3 -35 -16 c-36 -17 -88 -24 -250 -34 -216 -14
-409 -44 -512 -81 -125 -46 -283 -140 -348 -209 -30 -31 -24 -29 40 19 89 66
179 115 275 147 96 33 289 35 349 4 58 -29 81 -66 80 -124 -6 -184 -206 -311
-540 -343 l-120 -12 32 -28 c41 -36 58 -85 52 -153 -7 -77 -45 -135 -130 -195
-115 -81 -248 -120 -407 -120 -143 0 -220 34 -240 106 l-7 29 -18 -27 c-38
-58 -15 -124 57 -163 20 -11 36 -24 34 -30 -9 -29 -192 -83 -507 -150 -85 -18
-148 -34 -139 -34 38 -2 326 32 469 55 450 72 747 184 1075 404 200 134 441
348 873 775 193 190 202 202 202 238 0 27 -7 45 -25 62 -24 25 -26 25 -197 23
-95 -1 -193 -3 -218 -5z"/>
<path d="M3925 1922 c-33 -16 -112 -72 -175 -124 -336 -278 -545 -410 -856
-542 -400 -169 -740 -226 -1358 -226 -99 0 -177 -3 -174 -6 15 -15 466 -61
737 -76 174 -9 259 -9 385 0 211 16 230 16 275 -8 125 -63 81 -313 -85 -490
-37 -38 -62 -70 -56 -70 27 0 255 54 322 76 161 54 336 170 476 316 70 73 86
96 112 165 44 113 73 267 79 422 l6 133 46 29 c74 47 81 41 81 -79 0 -134 -29
-340 -61 -437 -53 -158 -156 -312 -274 -408 -86 -70 -271 -157 -495 -232 -190
-64 -193 -66 -125 -60 285 25 613 114 854 232 121 59 143 74 216 147 129 128
178 250 210 518 19 162 40 623 31 673 -15 79 -71 94 -171 47z"/>
</g>
</svg>
